<?xml version="1.0" standalone="no"?>
<!DOCTYPE svg PUBLIC "-//W3C//DTD SVG 20010904//EN"
 "http://www.w3.org/TR/2001/REC-SVG-20010904/DTD/svg10.dtd">
<svg version="1.0" xmlns="http://www.w3.org/2000/svg"
 width="256.000000pt" height="256.000000pt" viewBox="0 0 256.000000 256.000000"
 preserveAspectRatio="xMidYMid meet">
<metadata>
Created by potrace 1.11, written by Peter Selinger 2001-2013
</metadata>
<g transform="translate(0.000000,256.000000) scale(0.100000,-0.100000)"
fill="#000000" stroke="none">
<path d="M275 2318 c3 -35 8 -81 10 -103 3 -22 7 -69 10 -105 10 -131 16 -206
20 -230 2 -14 7 -70 11 -125 3 -55 8 -107 9 -115 2 -8 6 -53 9 -100 4 -47 9
-101 11 -120 6 -48 13 -131 20 -220 6 -77 12 -143 20 -217 3 -23 7 -77 10
-120 3 -43 7 -89 10 -103 2 -14 6 -65 10 -115 3 -49 8 -106 10 -125 2 -19 7
-62 10 -94 7 -71 8 -72 42 -80 16 -4 195 -54 400 -112 l371 -105 124 35 c67
19 247 69 398 111 151 43 279 80 283 84 8 8 12 34 22 166 4 44 8 94 10 110 1
17 6 66 9 110 4 44 9 96 11 115 3 19 7 64 10 100 6 79 14 169 20 230 2 25 7
77 10 115 3 39 7 94 10 123 6 67 13 143 19 212 3 30 8 82 11 115 5 56 8 86 20
220 3 28 7 82 10 120 4 39 8 90 11 115 2 25 6 73 9 108 l6 62 -991 0 -991 0 6
-62z m1599 -432 c-3 -45 -8 -92 -9 -106 -2 -14 -4 -33 -4 -42 -1 -17 -31 -18
-475 -18 l-474 0 3 -42 c2 -24 7 -79 10 -123 4 -44 9 -82 11 -85 3 -2 204 -5
447 -6 243 -1 446 -2 450 -3 5 0 6 -20 2 -43 -6 -45 -11 -97 -20 -208 -3 -36
-8 -83 -10 -105 -2 -22 -7 -71 -10 -110 -3 -38 -7 -88 -10 -110 -2 -22 -7 -71
-10 -110 -4 -38 -8 -71 -10 -73 -3 -3 -247 -72 -400 -112 l-110 -29 -220 61
c-121 33 -236 65 -255 70 -29 8 -35 14 -36 36 0 15 -4 68 -7 117 -4 50 -10
125 -13 168 l-6 78 123 -3 c116 -3 124 -4 125 -23 2 -37 15 -170 17 -171 1 0
64 -17 139 -37 l136 -37 119 31 c163 42 159 40 161 87 2 22 4 48 6 59 2 10 7
59 11 109 4 49 8 93 9 98 0 6 -163 10 -426 11 -235 0 -429 2 -431 5 -3 3 -8
46 -12 95 -3 50 -8 106 -10 125 -2 19 -6 71 -10 115 -4 44 -8 96 -10 115 -2
19 -6 69 -9 110 -4 41 -9 96 -12 122 -3 26 -3 51 0 56 3 5 282 8 621 9 l616 0
-7 -81z"/>
</g>
</svg>
